<?xml version="1.0" encoding="iso-8859-1"?>
<!-- Uploaded to: SVG Repo, www.svgrepo.com, Generator: SVG Repo Mixer Tools -->
<!DOCTYPE svg PUBLIC "-//W3C//DTD SVG 1.1//EN" "http://www.w3.org/Graphics/SVG/1.1/DTD/svg11.dtd">
<svg fill="#000000" version="1.1" id="Capa_1" xmlns="http://www.w3.org/2000/svg" xmlns:xlink="http://www.w3.org/1999/xlink" 
	 width="80px" height="80px" viewBox="0 0 26.498 26.498"
	 xml:space="preserve">
<g>
	<g>
		<path d="M26.394,22.189l-1.711-6.417V4.162c0-1.778-1.446-3.225-3.225-3.225H5.041c-1.778,0-3.225,1.446-3.225,3.225v11.611
			l-1.711,6.417c-0.229,0.86-0.078,1.722,0.415,2.362c0.493,0.642,1.286,1.01,2.176,1.01h21.107c0.89,0,1.683-0.368,2.176-1.01
			C26.471,23.911,26.623,23.05,26.394,22.189z M5.041,2.695h16.417c0.808,0,1.466,0.657,1.466,1.466v11.318H3.575V4.162
			C3.575,3.354,4.231,2.695,5.041,2.695z M24.584,23.481c-0.16,0.207-0.438,0.322-0.781,0.322H2.694
			c-0.344,0-0.622-0.115-0.781-0.322c-0.159-0.208-0.199-0.506-0.11-0.838l1.741-6.527l0.006-0.05h19.397l0.006,0.05l1.74,6.527
			C24.783,22.976,24.743,23.273,24.584,23.481z"/>
		<path d="M5.041,14.618h16.417c0.321,0,0.586-0.265,0.586-0.586V4.21c0-0.322-0.265-0.586-0.586-0.586H5.041
			c-0.322,0-0.586,0.264-0.586,0.586v9.822C4.455,14.354,4.718,14.618,5.041,14.618z"/>
		<polygon points="9.315,19.741 8.682,22.65 17.229,22.65 16.595,19.741 		"/>
	</g>
</g>
</svg>